<svg xmlns="http://www.w3.org/2000/svg" viewBox="0 0 512 512"><defs><linearGradient id="g" x1="0" y1="0" x2="0" y2="1"><stop offset="0" stop-color="#9ad4ea"/><stop offset="1" stop-color="#e3f3f1"/></linearGradient>
<linearGradient id="h" x1="0" y1="0" x2="0" y2="1"><stop offset="0" stop-color="#4f9f55"/><stop offset="1" stop-color="#1f5e36"/></linearGradient>
<clipPath id="c"><rect width="512" height="512" rx="96"/></clipPath></defs><rect width="512" height="512" rx="96" fill="url(#g)"/>
<g clip-path="url(#c)"><path d="M-10 190 C150 150 360 150 522 196 V522 H-10 Z" fill="url(#h)"/></g>
<g fill="none" stroke="#fbfaf3" stroke-linecap="round" stroke-linejoin="round">
<path d="M164 272 C214 212 316 206 384 232 C406 240 424 252 432 276" stroke-width="20"/>
<path d="M164 272 C150 242 152 214 170 190" stroke-width="16"/>
<path d="M168 196 L112 206" stroke-width="10"/>
<path d="M170 186 L122 166" stroke-width="10"/>
<path d="M180 184 L192 156" stroke-width="10"/>
<path d="M200 268 C254 254 312 252 366 262" stroke-width="10"/>
<path d="M186 292 L160 350 L126 360" stroke-width="10"/>
<path d="M222 290 L214 356 L184 372" stroke-width="10"/>
<path d="M356 282 L384 336 L416 340" stroke-width="10"/>
<path d="M322 286 L336 350 L366 362" stroke-width="10"/>
</g>
<circle cx="150" cy="190" r="9" fill="none" stroke="#fbfaf3" stroke-width="5"/>
</svg>