<svg xmlns="http://www.w3.org/2000/svg" viewBox="0 0 512 512"><defs><radialGradient id="g" cx=".5" cy=".5" r=".7"><stop offset="0" stop-color="#15433f"/><stop offset="1" stop-color="#08201f"/></radialGradient></defs><rect width="512" height="512" rx="96" fill="url(#g)"/>
<circle cx="256" cy="256" r="178" fill="none" stroke="#e9c46a" stroke-width="2" opacity=".45"/>
<circle cx="256" cy="256" r="192" fill="none" stroke="#e9c46a" stroke-width="1.5" stroke-dasharray="2 9" opacity=".6"/><g transform="translate(256.0 256.0) rotate(45.0)"><path d="M0 0 Q26 -63.0 0 -150 Q-26 -63.0 0 0Z" fill="#2e7a45"/><path d="M0 -3 L0 -120.0" stroke="#1a4a2a" stroke-width="3" stroke-linecap="round"/></g><g transform="translate(256.0 256.0) rotate(135.0)"><path d="M0 0 Q26 -63.0 0 -150 Q-26 -63.0 0 0Z" fill="#2e7a45"/><path d="M0 -3 L0 -120.0" stroke="#1a4a2a" stroke-width="3" stroke-linecap="round"/></g><g transform="translate(256.0 256.0) rotate(225.0)"><path d="M0 0 Q26 -63.0 0 -150 Q-26 -63.0 0 0Z" fill="#2e7a45"/><path d="M0 -3 L0 -120.0" stroke="#1a4a2a" stroke-width="3" stroke-linecap="round"/></g><g transform="translate(256.0 256.0) rotate(315.0)"><path d="M0 0 Q26 -63.0 0 -150 Q-26 -63.0 0 0Z" fill="#2e7a45"/><path d="M0 -3 L0 -120.0" stroke="#1a4a2a" stroke-width="3" stroke-linecap="round"/></g><g transform="translate(256.0 256.0) rotate(90.0)"><path d="M0 0 Q40 -82.3 0 -196 Q-40 -82.3 0 0Z" fill="#e9c46a"/><path d="M0 -3 L0 -156.8" stroke="#b8892c" stroke-width="4" stroke-linecap="round"/></g><g transform="translate(256.0 256.0) rotate(180.0)"><path d="M0 0 Q40 -82.3 0 -196 Q-40 -82.3 0 0Z" fill="#e9c46a"/><path d="M0 -3 L0 -156.8" stroke="#b8892c" stroke-width="4" stroke-linecap="round"/></g><g transform="translate(256.0 256.0) rotate(270.0)"><path d="M0 0 Q40 -82.3 0 -196 Q-40 -82.3 0 0Z" fill="#e9c46a"/><path d="M0 -3 L0 -156.8" stroke="#b8892c" stroke-width="4" stroke-linecap="round"/></g><g transform="translate(256.0 256.0) rotate(0.0)"><path d="M0 0 Q42 -85.7 0 -204 Q-42 -85.7 0 0Z" fill="#e76f51"/><path d="M0 -3 L0 -163.2" stroke="#a8432d" stroke-width="4" stroke-linecap="round"/></g><circle cx="256" cy="258" r="92" fill="#08201f"/><circle cx="256" cy="258" r="92" fill="none" stroke="#e9c46a" stroke-width="4"/><g transform="translate(256 258) scale(0.74) translate(-256 -256)"><ellipse cx="256" cy="262" rx="80" ry="98" fill="#2d6a37"/><g transform="translate(256.0 226.0) rotate(0.0)"><path d="M0 0 Q17 -26.0 0 -62 Q-17 -26.0 0 0Z" fill="#5fa64a"/><path d="M0 -3 L0 -49.6" stroke="#23512b" stroke-width="3" stroke-linecap="round"/></g><g transform="translate(258.0 240.0) rotate(74.0)"><path d="M0 0 Q26 -38.6 0 -92 Q-26 -38.6 0 0Z" fill="#8cc863"/><path d="M0 -3 L0 -73.6" stroke="#23512b" stroke-width="3" stroke-linecap="round"/></g><g transform="translate(254.0 240.0) rotate(-74.0)"><path d="M0 0 Q26 -38.6 0 -92 Q-26 -38.6 0 0Z" fill="#8cc863"/><path d="M0 -3 L0 -73.6" stroke="#23512b" stroke-width="3" stroke-linecap="round"/></g><path d="M202 254 Q224 240 246 254 Q224 266 202 254Z" fill="#ffd35c"/><circle cx="224" cy="254" r="6" fill="#0e2413"/><path d="M266 254 Q288 240 310 254 Q288 266 266 254Z" fill="#ffd35c"/><circle cx="288" cy="254" r="6" fill="#0e2413"/><g transform="translate(256.0 238.0) rotate(180.0)"><path d="M0 0 Q15 -26.0 0 -62 Q-15 -26.0 0 0Z" fill="#5fa64a"/><path d="M0 -3 L0 -49.6" stroke="#23512b" stroke-width="3" stroke-linecap="round"/></g><g transform="translate(262.0 300.0) rotate(112.0)"><path d="M0 0 Q17 -29.4 0 -70 Q-17 -29.4 0 0Z" fill="#8cc863"/><path d="M0 -3 L0 -56.0" stroke="#23512b" stroke-width="3" stroke-linecap="round"/></g><g transform="translate(250.0 300.0) rotate(-112.0)"><path d="M0 0 Q17 -29.4 0 -70 Q-17 -29.4 0 0Z" fill="#8cc863"/><path d="M0 -3 L0 -56.0" stroke="#23512b" stroke-width="3" stroke-linecap="round"/></g><ellipse cx="256" cy="318" rx="15" ry="9" fill="#0e2413"/><g transform="translate(266.0 322.0) rotate(154.0)"><path d="M0 0 Q22 -35.3 0 -84 Q-22 -35.3 0 0Z" fill="#5fa64a"/><path d="M0 -3 L0 -67.2" stroke="#23512b" stroke-width="3" stroke-linecap="round"/></g><g transform="translate(246.0 322.0) rotate(-154.0)"><path d="M0 0 Q22 -35.3 0 -84 Q-22 -35.3 0 0Z" fill="#5fa64a"/><path d="M0 -3 L0 -67.2" stroke="#23512b" stroke-width="3" stroke-linecap="round"/></g><g transform="translate(256.0 326.0) rotate(180.0)"><path d="M0 0 Q16 -24.4 0 -58 Q-16 -24.4 0 0Z" fill="#8cc863"/><path d="M0 -3 L0 -46.4" stroke="#23512b" stroke-width="3" stroke-linecap="round"/></g></g></svg>